<svg width="243" height="23" viewBox="0 0 243 23" fill="none" xmlns="http://www.w3.org/2000/svg">
<g clip-path="url(#clip0_1202_3410)">
<path d="M75.165 22.4978L63.8388 0.502197H61.0587L49.7324 22.4978H56.1163L54.5718 19.3843H60.9557L59.4112 22.4978H65.7951L64.2506 19.3843H70.6345L69.09 22.4978H75.165ZM62.3973 16.2708C60.235 16.2708 58.3816 14.5633 58.3816 12.3537C58.3816 10.2446 60.132 8.4367 62.3973 8.4367C64.6625 8.4367 66.4129 10.1441 66.4129 12.3537C66.4129 14.5633 64.6625 16.2708 62.3973 16.2708Z" fill="white"/>
<path d="M0 15.9694V15.1659H2.88305V15.9694C2.88305 18.4804 5.4572 20.3886 9.88475 20.3886C13.7975 20.3886 16.3716 18.7817 16.3716 16.2707C16.3716 10.2445 0.617797 14.5633 0.617797 6.22707C0.514831 2.91266 2.98602 0 9.36992 0C15.7538 0 18.6369 2.91266 18.6369 6.82969V7.73362H15.7538V6.72926C15.7538 4.31878 13.4886 2.61135 9.36992 2.61135C5.56017 2.61135 3.39788 4.1179 3.39788 6.12664C3.39788 11.3493 19.0487 7.63319 19.1517 16.1703C19.1517 19.8865 16.0627 22.8996 9.67881 22.8996C3.39788 23 0 19.9869 0 15.9694Z" fill="#78DED4"/>
<path d="M46.7465 6.52837V8.33623C46.7465 12.1528 44.1723 14.4629 39.3329 14.4629H31.4045V22.6987H28.5215V0.401733H39.23C44.1723 0.401733 46.7465 2.71178 46.7465 6.52837ZM43.8634 6.52837C43.8634 4.21833 42.5249 3.01309 39.5389 3.01309H31.5075V11.7511H39.5389C42.5249 11.7511 43.9664 10.5458 43.9664 8.23579V6.52837H43.8634Z" fill="#78DED4"/>
<path d="M81.6523 15.3668V7.63319C81.6523 2.91266 84.8443 0 91.5371 0C98.2299 0 101.422 2.91266 101.422 7.63319V8.53712H98.4358V7.9345C98.4358 4.41921 96.4795 2.61135 91.6401 2.61135C86.5947 2.61135 84.6384 4.51965 84.6384 7.9345V14.9651C84.6384 18.4804 86.6977 20.2882 91.6401 20.2882C96.4795 20.2882 98.4358 18.3799 98.4358 14.9651V14.4629H101.422V15.3668C101.422 20.0873 98.2299 23 91.6401 23C84.8443 23 81.6523 20.0873 81.6523 15.3668Z" fill="#78DED4"/>
<path d="M114.396 3.01309V10.345H126.237V13.0568H114.396V19.9869H127.678V22.5982H111.513V0.401733H127.678V3.01309H114.396Z" fill="#78DED4"/>
<path d="M158.876 6.52837V8.33623C158.876 12.1528 156.302 14.4629 151.463 14.4629H143.534V22.6987H140.651V0.401733H151.36C156.302 0.401733 158.876 2.71178 158.876 6.52837ZM155.993 6.52837C155.993 4.21833 154.655 3.01309 151.669 3.01309H143.637V11.7511H151.669C154.655 11.7511 156.096 10.5458 156.096 8.23579V6.52837H155.993Z" fill="#78DED4"/>
<path d="M167.525 15.3668V7.73362C167.525 2.91266 170.717 0 177.513 0C184.309 0 187.398 2.91266 187.398 7.73362V15.3668C187.398 20.0873 184.206 23 177.513 23C170.717 23 167.525 20.1878 167.525 15.3668ZM184.515 15.0655V8.13537C184.515 4.62009 182.558 2.71179 177.41 2.71179C172.262 2.71179 170.305 4.62009 170.305 8.13537V15.0655C170.305 18.4804 172.262 20.3886 177.41 20.3886C182.558 20.3886 184.515 18.4804 184.515 15.0655Z" fill="#78DED4"/>
<path d="M208.507 13.3581H200.578V22.5982H197.695V0.401733H208.404C213.243 0.401733 215.817 2.61134 215.817 6.42793V7.33186C215.817 10.2445 214.273 12.2533 211.39 13.0568L215.817 22.5982H212.831L208.507 13.3581ZM200.681 10.7467H208.713C211.699 10.7467 213.14 9.64191 213.14 7.33186V6.42793C213.14 4.21833 211.802 3.01309 208.816 3.01309H200.784V10.7467H200.681Z" fill="#78DED4"/>
<path d="M243 3.01309H234.659V22.5982H231.776V3.01309H223.333V0.401733H243V3.01309Z" fill="#78DED4"/>
</g>
<defs>
<clipPath id="clip0_1202_3410">
<rect width="243" height="23" fill="white"/>
</clipPath>
</defs>
</svg>
