<svg width="686" height="103" viewBox="0 0 686 103" fill="none" xmlns="http://www.w3.org/2000/svg">
<path d="M15.2796 95.16C14.4796 95.16 13.7729 94.9933 13.1596 94.66C12.5463 94.3133 12.0663 93.8333 11.7196 93.22C11.3863 92.5933 11.2196 91.8733 11.2196 91.06H12.6596C12.6596 91.8867 12.8996 92.56 13.3796 93.08C13.8729 93.5867 14.5196 93.84 15.3196 93.84H17.5396C18.3263 93.84 18.9596 93.6667 19.4396 93.32C19.9196 92.96 20.1596 92.4933 20.1596 91.92V90.64C20.1596 90.1867 19.9796 89.8 19.6196 89.48C19.2729 89.16 18.7929 88.9533 18.1796 88.86L14.5796 88.26C13.5663 88.0867 12.7796 87.7267 12.2196 87.18C11.6596 86.6333 11.3796 85.9467 11.3796 85.12V84.04C11.3796 83.0667 11.7396 82.2933 12.4596 81.72C13.1929 81.1333 14.1596 80.84 15.3596 80.84H17.6196C18.7529 80.84 19.6663 81.1867 20.3596 81.88C21.0529 82.56 21.3996 83.46 21.3996 84.58H19.9596C19.9596 83.8467 19.7463 83.26 19.3196 82.82C18.8929 82.38 18.3263 82.16 17.6196 82.16H15.3596C14.5996 82.16 13.9929 82.3333 13.5396 82.68C13.0863 83.0133 12.8596 83.4667 12.8596 84.04V85.12C12.8596 85.5867 13.0263 85.98 13.3596 86.3C13.7063 86.62 14.1796 86.8333 14.7796 86.94L18.3596 87.56C19.3996 87.7467 20.2063 88.1067 20.7796 88.64C21.3529 89.16 21.6396 89.8267 21.6396 90.64V91.92C21.6396 92.8933 21.2663 93.68 20.5196 94.28C19.7729 94.8667 18.7929 95.16 17.5796 95.16H15.2796ZM28.0787 95C27.0253 95 26.2653 94.7733 25.7987 94.32C25.3453 93.8667 25.1187 93.12 25.1187 92.08V86.3H23.3587V85.02H25.1187V82H26.5587V85.02H29.1587V86.3H26.5587V92.08C26.5587 92.6667 26.672 93.0867 26.8987 93.34C27.1387 93.5933 27.532 93.72 28.0787 93.72H29.1587V95H28.0787ZM34.441 95.16C33.4677 95.16 32.6877 94.9067 32.101 94.4C31.5277 93.8933 31.241 93.2133 31.241 92.36V91.72C31.241 90.88 31.541 90.2067 32.141 89.7C32.741 89.1933 33.5343 88.94 34.521 88.94H35.801C36.241 88.94 36.6943 89.0067 37.161 89.14C37.6277 89.2733 38.0277 89.4533 38.361 89.68V88.02C38.361 87.46 38.1877 87.0067 37.841 86.66C37.4943 86.3 37.0343 86.12 36.461 86.12H34.861C34.2877 86.12 33.8277 86.2533 33.481 86.52C33.1343 86.7867 32.961 87.14 32.961 87.58H31.521C31.521 86.7667 31.8277 86.1133 32.441 85.62C33.0543 85.1133 33.861 84.86 34.861 84.86H36.461C37.4477 84.86 38.241 85.1533 38.841 85.74C39.4543 86.3133 39.761 87.0733 39.761 88.02V95H38.401V93.6C38.0943 94.08 37.6877 94.46 37.181 94.74C36.6877 95.02 36.1743 95.16 35.641 95.16H34.441ZM35.681 93.9C36.3077 93.9 36.8677 93.7067 37.361 93.32C37.8543 92.9333 38.1877 92.42 38.361 91.78V91.04C38.0943 90.7867 37.721 90.5867 37.241 90.44C36.7743 90.28 36.2943 90.2 35.801 90.2H34.521C33.9743 90.2 33.5277 90.34 33.181 90.62C32.8477 90.9 32.681 91.2667 32.681 91.72V92.36C32.681 92.8267 32.841 93.2 33.161 93.48C33.481 93.76 33.9077 93.9 34.441 93.9H35.681ZM42.6743 85.02H44.0743V86.56C44.341 86.0933 44.741 85.7133 45.2743 85.42C45.821 85.1267 46.3876 84.98 46.9743 84.98H47.8543V86.28H46.9743C46.121 86.28 45.4276 86.5533 44.8943 87.1C44.3743 87.6333 44.1143 88.3467 44.1143 89.24V95H42.6743V85.02ZM53.7037 95C52.6503 95 51.8903 94.7733 51.4237 94.32C50.9703 93.8667 50.7437 93.12 50.7437 92.08V86.3H48.9837V85.02H50.7437V82H52.1837V85.02H54.7837V86.3H52.1837V92.08C52.1837 92.6667 52.297 93.0867 52.5237 93.34C52.7637 93.5933 53.157 93.72 53.7037 93.72H54.7837V95H53.7037Z" fill="black"/>
<path d="M626.983 81H636.183V82.32H628.463V87.44H635.443V88.76H628.463V95H626.983V81ZM639.506 83.52C639.186 83.52 638.926 83.42 638.726 83.22C638.526 83.02 638.426 82.76 638.426 82.44C638.426 82.12 638.526 81.86 638.726 81.66C638.926 81.46 639.186 81.36 639.506 81.36C639.826 81.36 640.086 81.46 640.286 81.66C640.486 81.86 640.586 82.12 640.586 82.44C640.586 82.76 640.486 83.02 640.286 83.22C640.086 83.42 639.826 83.52 639.506 83.52ZM638.786 85.02H640.226V95H638.786V85.02ZM643.622 85.02H645.022V86.5C645.328 86.02 645.728 85.6267 646.222 85.32C646.715 85.0133 647.208 84.86 647.702 84.86H649.062C649.982 84.86 650.722 85.1733 651.282 85.8C651.855 86.4267 652.142 87.2467 652.142 88.26V95H650.702V88.22C650.702 87.6067 650.548 87.1067 650.242 86.72C649.935 86.3333 649.528 86.14 649.022 86.14H647.742C647.115 86.14 646.542 86.3867 646.022 86.88C645.515 87.3733 645.195 88.0067 645.062 88.78V95H643.622V85.02ZM656.147 83.52C655.827 83.52 655.567 83.42 655.367 83.22C655.167 83.02 655.067 82.76 655.067 82.44C655.067 82.12 655.167 81.86 655.367 81.66C655.567 81.46 655.827 81.36 656.147 81.36C656.467 81.36 656.727 81.46 656.927 81.66C657.127 81.86 657.227 82.12 657.227 82.44C657.227 82.76 657.127 83.02 656.927 83.22C656.727 83.42 656.467 83.52 656.147 83.52ZM655.427 85.02H656.867V95H655.427V85.02ZM663.102 95.16C662.089 95.16 661.276 94.8733 660.662 94.3C660.049 93.7267 659.742 92.9733 659.742 92.04H661.142C661.142 92.6 661.322 93.0533 661.682 93.4C662.042 93.7467 662.516 93.92 663.102 93.92H664.842C665.416 93.92 665.882 93.8067 666.242 93.58C666.602 93.34 666.782 93.0333 666.782 92.66V91.98C666.782 91.7267 666.682 91.5067 666.482 91.32C666.282 91.12 666.022 90.9867 665.702 90.92L662.242 90.32C661.549 90.2 660.989 89.94 660.562 89.54C660.149 89.1267 659.942 88.6467 659.942 88.1V87.44C659.942 86.6667 660.236 86.0467 660.822 85.58C661.409 85.1 662.182 84.86 663.142 84.86H664.862C665.796 84.86 666.549 85.1267 667.122 85.66C667.696 86.18 667.982 86.8733 667.982 87.74H666.582C666.569 87.2467 666.402 86.8533 666.082 86.56C665.776 86.2533 665.369 86.1 664.862 86.1H663.142C662.609 86.1 662.182 86.2267 661.862 86.48C661.542 86.72 661.382 87.04 661.382 87.44V88.02C661.382 88.2733 661.489 88.5 661.702 88.7C661.929 88.9 662.216 89.0267 662.562 89.08L666.002 89.68C666.669 89.8 667.202 90.06 667.602 90.46C668.016 90.86 668.222 91.34 668.222 91.9V92.7C668.222 93.4333 667.909 94.0267 667.282 94.48C666.669 94.9333 665.856 95.16 664.842 95.16H663.102ZM670.653 81H672.093V86.4C672.399 85.9333 672.793 85.56 673.273 85.28C673.753 85 674.239 84.86 674.733 84.86H676.133C677.053 84.86 677.793 85.1733 678.353 85.8C678.926 86.4267 679.213 87.2467 679.213 88.26V95H677.773V88.22C677.773 87.6067 677.619 87.1067 677.313 86.72C677.006 86.3333 676.599 86.14 676.093 86.14H674.773C674.146 86.14 673.573 86.3867 673.053 86.88C672.546 87.36 672.226 87.98 672.093 88.74V95H670.653V81Z" fill="black"/>
<line x1="33" y1="29.5" x2="653" y2="29.5" stroke="black" stroke-width="3"/>
<circle cx="32.5" cy="29.5" r="10" fill="black" stroke="black" stroke-width="3"/>
<circle cx="239.5" cy="29.5" r="10" fill="#78DED4" stroke="black" stroke-width="3"/>
<circle cx="446.5" cy="29.5" r="10" fill="white" stroke="black" stroke-width="3"/>
<circle cx="653.5" cy="29.5" r="10" fill="white" stroke="black" stroke-width="3"/>
<path d="M216 58.7027L268 32.5598L268 26.1429L216 -2.27299e-06L216 14.7351L223.361 11.1702L223.361 25.9053L216 22.3403L216 37.0754L223.361 33.5105L223.361 48.2456L216 44.6806L216 58.7027ZM230.721 29.2325C230.721 24.2416 234.758 19.9637 239.982 19.9637C244.968 19.9637 249.242 24.004 249.242 29.2325C249.242 34.4611 245.205 38.5014 239.982 38.5014C234.758 38.5014 230.721 34.4611 230.721 29.2325Z" fill="black"/>
</svg>
