<svg width="159" height="18" viewBox="0 0 159 18" fill="none" xmlns="http://www.w3.org/2000/svg">
<path d="M0.92 0.199999H2.624L8.624 11.36L14.456 0.199999H16.16V17H14.408V3.512L9.56 12.728C9.384 13.048 9.232 13.272 9.104 13.4C8.976 13.512 8.832 13.568 8.672 13.568H8.144L2.672 3.512V17H0.92V0.199999ZM24.6541 10.544L18.4621 0.199999H20.3821L25.5421 8.936L30.7021 0.199999H32.6221L26.4301 10.544V17H24.6541V10.544ZM71.0677 17.192C69.9957 17.192 69.0437 16.936 68.2117 16.424C67.3957 15.912 66.7557 15.2 66.2917 14.288C65.8437 13.36 65.6197 12.296 65.6197 11.096V6.104C65.6197 4.904 65.8437 3.84 66.2917 2.912C66.7557 1.984 67.4037 1.272 68.2357 0.775999C69.0837 0.263999 70.0597 0.0079999 71.1637 0.0079999H73.7077C74.7477 0.0079999 75.6597 0.232 76.4437 0.68C77.2437 1.128 77.8597 1.76 78.2917 2.576C78.7397 3.392 78.9637 4.328 78.9637 5.384H77.2357C77.2357 4.248 76.9077 3.336 76.2517 2.648C75.6117 1.944 74.7637 1.592 73.7077 1.592H71.1637C70.0277 1.592 69.1157 2.008 68.4277 2.84C67.7397 3.656 67.3957 4.744 67.3957 6.104V11.096C67.3957 12.456 67.7317 13.552 68.4037 14.384C69.0757 15.2 69.9637 15.608 71.0677 15.608H73.6597C74.7477 15.608 75.6197 15.224 76.2757 14.456C76.9477 13.688 77.2837 12.68 77.2837 11.432H79.0117C79.0117 12.568 78.7877 13.576 78.3397 14.456C77.8917 15.32 77.2597 15.992 76.4437 16.472C75.6437 16.952 74.7157 17.192 73.6597 17.192H71.0677ZM86.9114 17.192C85.8394 17.192 84.8874 16.936 84.0554 16.424C83.2394 15.912 82.5994 15.2 82.1354 14.288C81.6874 13.36 81.4634 12.296 81.4634 11.096V6.104C81.4634 4.904 81.6874 3.84 82.1354 2.912C82.5994 1.984 83.2474 1.272 84.0794 0.775999C84.9274 0.263999 85.9034 0.0079999 87.0074 0.0079999H89.5514C90.5914 0.0079999 91.5034 0.232 92.2874 0.68C93.0874 1.128 93.7034 1.76 94.1354 2.576C94.5834 3.392 94.8074 4.328 94.8074 5.384H93.0794C93.0794 4.248 92.7514 3.336 92.0954 2.648C91.4554 1.944 90.6074 1.592 89.5514 1.592H87.0074C85.8714 1.592 84.9594 2.008 84.2714 2.84C83.5834 3.656 83.2394 4.744 83.2394 6.104V11.096C83.2394 12.456 83.5754 13.552 84.2474 14.384C84.9194 15.2 85.8074 15.608 86.9114 15.608H89.5034C90.5914 15.608 91.4634 15.224 92.1194 14.456C92.7914 13.688 93.1274 12.68 93.1274 11.432H94.8554C94.8554 12.568 94.6314 13.576 94.1834 14.456C93.7354 15.32 93.1034 15.992 92.2874 16.472C91.4874 16.952 90.5594 17.192 89.5034 17.192H86.9114ZM102.923 17.192C101.819 17.192 100.843 16.944 99.9952 16.448C99.1472 15.952 98.4832 15.248 98.0032 14.336C97.5392 13.424 97.3072 12.368 97.3072 11.168V6.032C97.3072 4.832 97.5392 3.776 98.0032 2.864C98.4832 1.952 99.1472 1.248 99.9952 0.751999C100.843 0.256 101.827 0.0079999 102.947 0.0079999H105.491C106.611 0.0079999 107.595 0.256 108.443 0.751999C109.291 1.248 109.947 1.952 110.411 2.864C110.891 3.776 111.131 4.832 111.131 6.032V11.168C111.131 12.368 110.891 13.424 110.411 14.336C109.947 15.232 109.283 15.936 108.419 16.448C107.571 16.944 106.595 17.192 105.491 17.192H102.923ZM105.443 15.608C106.611 15.608 107.555 15.2 108.275 14.384C108.995 13.568 109.355 12.496 109.355 11.168V6.032C109.355 4.704 108.995 3.632 108.275 2.816C107.555 2 106.611 1.592 105.443 1.592H102.995C101.827 1.592 100.883 2 100.163 2.816C99.4432 3.632 99.0832 4.704 99.0832 6.032V11.168C99.0832 12.496 99.4352 13.568 100.139 14.384C100.859 15.2 101.803 15.608 102.971 15.608H105.443ZM119.586 17.192C118.562 17.192 117.658 16.968 116.874 16.52C116.09 16.056 115.482 15.408 115.05 14.576C114.618 13.728 114.402 12.76 114.402 11.672V0.199999H116.178V11.72C116.178 12.888 116.49 13.832 117.114 14.552C117.738 15.256 118.562 15.608 119.586 15.608H122.178C123.202 15.608 124.026 15.256 124.65 14.552C125.274 13.832 125.586 12.888 125.586 11.72V0.199999H127.362V11.672C127.362 12.76 127.146 13.728 126.714 14.576C126.282 15.408 125.674 16.056 124.89 16.52C124.106 16.968 123.202 17.192 122.178 17.192H119.586ZM131.115 0.199999H132.795L142.107 14.192V0.199999H143.835V17H142.155L132.843 3.104V17H131.115V0.199999ZM151.814 1.736H146.486V0.199999H158.918V1.736H153.59V17H151.814V1.736Z" fill="black"/>
</svg>
